<svg width="521" height="527" viewBox="0 0 521 527" fill="none" xmlns="http://www.w3.org/2000/svg">
<g clip-path="url(#clip0_250_157995)">
<rect width="520.2" height="526.83" rx="24" fill="#F8F8F8"/>
<g clip-path="url(#clip1_250_157995)">
<rect x="-20.1453" y="1038.54" width="1546.22" height="543.475" transform="rotate(-90 -20.1453 1038.54)" fill="url(#paint0_linear_250_157995)"/>
<line x1="3.60299" y1="805.348" x2="3.60299" y2="-881.981" stroke="#222222" stroke-opacity="0.05" stroke-width="0.468833"/>
<line x1="14.1488" y1="805.348" x2="14.1488" y2="-881.981" stroke="#222222" stroke-opacity="0.05" stroke-width="0.468833"/>
<line x1="24.6946" y1="805.348" x2="24.6946" y2="-881.981" stroke="#222222" stroke-opacity="0.05" stroke-width="0.468833"/>
<line x1="35.2404" y1="805.348" x2="35.2404" y2="-881.981" stroke="#222222" stroke-opacity="0.05" stroke-width="0.468833"/>
<line x1="45.7862" y1="805.348" x2="45.7862" y2="-881.981" stroke="#222222" stroke-opacity="0.05" stroke-width="0.468833"/>
<line x1="56.332" y1="805.348" x2="56.332" y2="-881.981" stroke="#222222" stroke-opacity="0.05" stroke-width="0.468833"/>
<line x1="66.8778" y1="805.348" x2="66.8778" y2="-881.981" stroke="#222222" stroke-opacity="0.05" stroke-width="0.468833"/>
<line x1="77.4236" y1="805.348" x2="77.4236" y2="-881.981" stroke="#222222" stroke-opacity="0.05" stroke-width="0.468833"/>
<line x1="87.9694" y1="805.348" x2="87.9694" y2="-881.981" stroke="#222222" stroke-opacity="0.05" stroke-width="0.468833"/>
<line x1="98.5152" y1="805.348" x2="98.5152" y2="-881.981" stroke="#222222" stroke-opacity="0.05" stroke-width="0.468833"/>
<line x1="109.061" y1="805.348" x2="109.061" y2="-881.981" stroke="#222222" stroke-opacity="0.05" stroke-width="0.468833"/>
<line x1="119.607" y1="805.348" x2="119.607" y2="-881.981" stroke="#222222" stroke-opacity="0.05" stroke-width="0.468833"/>
<line x1="130.153" y1="805.348" x2="130.153" y2="-881.981" stroke="#222222" stroke-opacity="0.05" stroke-width="0.468833"/>
<line x1="140.698" y1="805.348" x2="140.698" y2="-881.981" stroke="#222222" stroke-opacity="0.05" stroke-width="0.468833"/>
<line x1="151.244" y1="805.348" x2="151.244" y2="-881.981" stroke="#222222" stroke-opacity="0.05" stroke-width="0.468833"/>
<line x1="161.79" y1="805.348" x2="161.79" y2="-881.981" stroke="#222222" stroke-opacity="0.05" stroke-width="0.468833"/>
<line x1="172.336" y1="805.348" x2="172.336" y2="-881.981" stroke="#222222" stroke-opacity="0.05" stroke-width="0.468833"/>
<line x1="182.882" y1="805.348" x2="182.882" y2="-881.981" stroke="#222222" stroke-opacity="0.05" stroke-width="0.468833"/>
<line x1="193.427" y1="805.348" x2="193.427" y2="-881.981" stroke="#222222" stroke-opacity="0.05" stroke-width="0.468833"/>
<line x1="203.973" y1="805.348" x2="203.973" y2="-881.981" stroke="#222222" stroke-opacity="0.05" stroke-width="0.468833"/>
<line x1="214.519" y1="805.348" x2="214.519" y2="-881.981" stroke="#222222" stroke-opacity="0.05" stroke-width="0.468833"/>
<line x1="225.065" y1="805.348" x2="225.065" y2="-881.981" stroke="#222222" stroke-opacity="0.05" stroke-width="0.468833"/>
<line x1="235.611" y1="805.348" x2="235.611" y2="-881.981" stroke="#222222" stroke-opacity="0.05" stroke-width="0.468833"/>
<line x1="246.156" y1="805.348" x2="246.156" y2="-881.981" stroke="#222222" stroke-opacity="0.05" stroke-width="0.468833"/>
<line x1="256.702" y1="805.348" x2="256.702" y2="-881.981" stroke="#222222" stroke-opacity="0.05" stroke-width="0.468833"/>
<line x1="267.248" y1="805.348" x2="267.248" y2="-881.981" stroke="#222222" stroke-opacity="0.05" stroke-width="0.468833"/>
<line x1="277.794" y1="805.348" x2="277.794" y2="-881.981" stroke="#222222" stroke-opacity="0.05" stroke-width="0.468833"/>
<line x1="288.34" y1="805.348" x2="288.34" y2="-881.981" stroke="#222222" stroke-opacity="0.05" stroke-width="0.468833"/>
<line x1="298.885" y1="805.348" x2="298.885" y2="-881.981" stroke="#222222" stroke-opacity="0.05" stroke-width="0.468833"/>
<line x1="309.431" y1="805.348" x2="309.431" y2="-881.981" stroke="#222222" stroke-opacity="0.05" stroke-width="0.468833"/>
<line x1="319.977" y1="805.348" x2="319.977" y2="-881.981" stroke="#222222" stroke-opacity="0.05" stroke-width="0.468833"/>
<line x1="330.523" y1="805.348" x2="330.523" y2="-881.981" stroke="#222222" stroke-opacity="0.05" stroke-width="0.468833"/>
<line x1="341.069" y1="805.348" x2="341.069" y2="-881.981" stroke="#222222" stroke-opacity="0.05" stroke-width="0.468833"/>
<line x1="351.614" y1="805.348" x2="351.614" y2="-881.981" stroke="#222222" stroke-opacity="0.05" stroke-width="0.468833"/>
<line x1="362.16" y1="805.348" x2="362.16" y2="-881.981" stroke="#222222" stroke-opacity="0.05" stroke-width="0.468833"/>
<line x1="372.706" y1="805.348" x2="372.706" y2="-881.981" stroke="#222222" stroke-opacity="0.05" stroke-width="0.468833"/>
<line x1="383.252" y1="805.348" x2="383.252" y2="-881.981" stroke="#222222" stroke-opacity="0.05" stroke-width="0.468833"/>
<line x1="393.798" y1="805.348" x2="393.798" y2="-881.981" stroke="#222222" stroke-opacity="0.05" stroke-width="0.468833"/>
<line x1="404.344" y1="805.348" x2="404.344" y2="-881.981" stroke="#222222" stroke-opacity="0.05" stroke-width="0.468833"/>
<line x1="414.889" y1="805.348" x2="414.889" y2="-881.981" stroke="#222222" stroke-opacity="0.05" stroke-width="0.468833"/>
<line x1="425.435" y1="805.348" x2="425.435" y2="-881.981" stroke="#222222" stroke-opacity="0.05" stroke-width="0.468833"/>
<line x1="435.981" y1="805.348" x2="435.981" y2="-881.981" stroke="#222222" stroke-opacity="0.05" stroke-width="0.468833"/>
<line x1="446.527" y1="805.348" x2="446.527" y2="-881.981" stroke="#222222" stroke-opacity="0.05" stroke-width="0.468833"/>
<line x1="457.073" y1="805.348" x2="457.073" y2="-881.981" stroke="#222222" stroke-opacity="0.05" stroke-width="0.468833"/>
<line x1="467.618" y1="805.348" x2="467.618" y2="-881.981" stroke="#222222" stroke-opacity="0.05" stroke-width="0.468833"/>
<line x1="478.164" y1="805.348" x2="478.164" y2="-881.981" stroke="#222222" stroke-opacity="0.05" stroke-width="0.468833"/>
<line x1="488.71" y1="805.348" x2="488.71" y2="-881.981" stroke="#222222" stroke-opacity="0.05" stroke-width="0.468833"/>
<line x1="499.256" y1="805.348" x2="499.256" y2="-881.981" stroke="#222222" stroke-opacity="0.05" stroke-width="0.468833"/>
<line x1="509.802" y1="805.348" x2="509.802" y2="-881.981" stroke="#222222" stroke-opacity="0.05" stroke-width="0.468833"/>
<line x1="520.347" y1="805.348" x2="520.347" y2="-881.981" stroke="#222222" stroke-opacity="0.05" stroke-width="0.468833"/>
<line x1="-42.3745" y1="520.375" x2="912.169" y2="520.375" stroke="#222222" stroke-opacity="0.05" stroke-width="0.468833"/>
<line x1="-42.3745" y1="509.83" x2="912.169" y2="509.83" stroke="#222222" stroke-opacity="0.05" stroke-width="0.468833"/>
<line x1="-42.3745" y1="499.284" x2="912.169" y2="499.284" stroke="#222222" stroke-opacity="0.05" stroke-width="0.468833"/>
<line x1="-42.3745" y1="488.738" x2="912.169" y2="488.738" stroke="#222222" stroke-opacity="0.05" stroke-width="0.468833"/>
<line x1="-42.3745" y1="478.192" x2="912.169" y2="478.192" stroke="#222222" stroke-opacity="0.05" stroke-width="0.468833"/>
<line x1="-42.3745" y1="467.646" x2="912.169" y2="467.646" stroke="#222222" stroke-opacity="0.05" stroke-width="0.468833"/>
<line x1="-42.3745" y1="457.101" x2="912.169" y2="457.101" stroke="#222222" stroke-opacity="0.05" stroke-width="0.468833"/>
<line x1="-42.3745" y1="446.555" x2="912.169" y2="446.555" stroke="#222222" stroke-opacity="0.05" stroke-width="0.468833"/>
<line x1="-42.3745" y1="436.009" x2="912.169" y2="436.009" stroke="#222222" stroke-opacity="0.05" stroke-width="0.468833"/>
<line x1="-42.3745" y1="425.463" x2="912.169" y2="425.463" stroke="#222222" stroke-opacity="0.05" stroke-width="0.468833"/>
<line x1="-42.3745" y1="414.917" x2="912.169" y2="414.917" stroke="#222222" stroke-opacity="0.05" stroke-width="0.468833"/>
<line x1="-42.3745" y1="404.371" x2="912.169" y2="404.371" stroke="#222222" stroke-opacity="0.05" stroke-width="0.468833"/>
<line x1="-42.3745" y1="393.825" x2="912.169" y2="393.825" stroke="#222222" stroke-opacity="0.05" stroke-width="0.468833"/>
<line x1="-42.3745" y1="383.279" x2="912.169" y2="383.279" stroke="#222222" stroke-opacity="0.05" stroke-width="0.468833"/>
<line x1="-42.3745" y1="372.734" x2="912.169" y2="372.734" stroke="#222222" stroke-opacity="0.05" stroke-width="0.468833"/>
<line x1="-42.3745" y1="362.188" x2="912.169" y2="362.188" stroke="#222222" stroke-opacity="0.05" stroke-width="0.468833"/>
<line x1="-42.3745" y1="351.642" x2="912.169" y2="351.642" stroke="#222222" stroke-opacity="0.05" stroke-width="0.468833"/>
<line x1="-42.3745" y1="341.096" x2="912.169" y2="341.096" stroke="#222222" stroke-opacity="0.05" stroke-width="0.468833"/>
<line x1="-42.3745" y1="330.55" x2="912.169" y2="330.55" stroke="#222222" stroke-opacity="0.05" stroke-width="0.468833"/>
<line x1="-42.3745" y1="320.005" x2="912.169" y2="320.005" stroke="#222222" stroke-opacity="0.05" stroke-width="0.468833"/>
<line x1="-42.3745" y1="309.459" x2="912.169" y2="309.459" stroke="#222222" stroke-opacity="0.05" stroke-width="0.468833"/>
<line x1="-42.3745" y1="298.913" x2="912.169" y2="298.913" stroke="#222222" stroke-opacity="0.05" stroke-width="0.468833"/>
<line x1="-42.3745" y1="288.367" x2="912.169" y2="288.367" stroke="#222222" stroke-opacity="0.05" stroke-width="0.468833"/>
<line x1="-42.3745" y1="277.821" x2="912.169" y2="277.821" stroke="#222222" stroke-opacity="0.05" stroke-width="0.468833"/>
<line x1="-42.3745" y1="267.275" x2="912.169" y2="267.275" stroke="#222222" stroke-opacity="0.05" stroke-width="0.468833"/>
<line x1="-42.3745" y1="256.729" x2="912.169" y2="256.729" stroke="#222222" stroke-opacity="0.05" stroke-width="0.468833"/>
<line x1="-42.3745" y1="246.184" x2="912.169" y2="246.184" stroke="#222222" stroke-opacity="0.05" stroke-width="0.468833"/>
<line x1="-42.3745" y1="235.638" x2="912.169" y2="235.638" stroke="#222222" stroke-opacity="0.05" stroke-width="0.468833"/>
<line x1="-42.3745" y1="225.092" x2="912.169" y2="225.092" stroke="#222222" stroke-opacity="0.05" stroke-width="0.468833"/>
<line x1="-42.3745" y1="214.546" x2="912.169" y2="214.546" stroke="#222222" stroke-opacity="0.05" stroke-width="0.468833"/>
<line x1="-42.3745" y1="204" x2="912.169" y2="204" stroke="#222222" stroke-opacity="0.05" stroke-width="0.468833"/>
<line x1="-42.3745" y1="193.455" x2="912.169" y2="193.455" stroke="#222222" stroke-opacity="0.05" stroke-width="0.468833"/>
<line x1="-42.3745" y1="182.909" x2="912.169" y2="182.909" stroke="#222222" stroke-opacity="0.05" stroke-width="0.468833"/>
<line x1="-42.3745" y1="172.363" x2="912.169" y2="172.363" stroke="#222222" stroke-opacity="0.05" stroke-width="0.468833"/>
<line x1="-42.3745" y1="161.817" x2="912.169" y2="161.817" stroke="#222222" stroke-opacity="0.05" stroke-width="0.468833"/>
<line x1="-42.3745" y1="151.271" x2="912.169" y2="151.271" stroke="#222222" stroke-opacity="0.05" stroke-width="0.468833"/>
<line x1="-42.3745" y1="140.726" x2="912.169" y2="140.726" stroke="#222222" stroke-opacity="0.05" stroke-width="0.468833"/>
<line x1="-42.3745" y1="130.179" x2="912.169" y2="130.179" stroke="#222222" stroke-opacity="0.05" stroke-width="0.468833"/>
<line x1="-42.3745" y1="119.634" x2="912.169" y2="119.634" stroke="#222222" stroke-opacity="0.05" stroke-width="0.468833"/>
<line x1="-42.3745" y1="109.088" x2="912.169" y2="109.088" stroke="#222222" stroke-opacity="0.05" stroke-width="0.468833"/>
<line x1="-42.3745" y1="98.542" x2="912.169" y2="98.542" stroke="#222222" stroke-opacity="0.05" stroke-width="0.468833"/>
<line x1="-42.3745" y1="87.9961" x2="912.169" y2="87.9961" stroke="#222222" stroke-opacity="0.05" stroke-width="0.468833"/>
<line x1="-42.3745" y1="77.4502" x2="912.169" y2="77.4502" stroke="#222222" stroke-opacity="0.05" stroke-width="0.468833"/>
<line x1="-42.3745" y1="66.9043" x2="912.169" y2="66.9043" stroke="#222222" stroke-opacity="0.05" stroke-width="0.468833"/>
<line x1="-42.3745" y1="56.3584" x2="912.169" y2="56.3584" stroke="#222222" stroke-opacity="0.05" stroke-width="0.468833"/>
<line x1="-42.3745" y1="45.8129" x2="912.169" y2="45.813" stroke="#222222" stroke-opacity="0.05" stroke-width="0.468833"/>
<line x1="-42.3745" y1="35.267" x2="912.169" y2="35.2671" stroke="#222222" stroke-opacity="0.05" stroke-width="0.468833"/>
<line x1="-42.3745" y1="24.7212" x2="912.169" y2="24.7212" stroke="#222222" stroke-opacity="0.05" stroke-width="0.468833"/>
<line x1="-42.3745" y1="14.1753" x2="912.169" y2="14.1753" stroke="#222222" stroke-opacity="0.05" stroke-width="0.468833"/>
<line x1="-42.3745" y1="3.62935" x2="912.169" y2="3.6294" stroke="#222222" stroke-opacity="0.05" stroke-width="0.468833"/>
<mask id="mask0_250_157995" style="mask-type:alpha" maskUnits="userSpaceOnUse" x="-28" y="-508" width="720" height="1544">
<rect x="-27.8" y="1035.35" width="1542.4" height="719.53" transform="rotate(-90 -27.8 1035.35)" fill="#F7F4EF"/>
</mask>
<g mask="url(#mask0_250_157995)">
<g opacity="0.5" filter="url(#filter0_f_250_157995)">
<ellipse cx="61.2" cy="446.348" rx="144" ry="139" transform="rotate(-90 61.2 446.348)" fill="#2B59FF"/>
</g>
<g opacity="0.35" filter="url(#filter1_f_250_157995)">
<ellipse cx="420.878" cy="98.8477" rx="195.5" ry="164.678" transform="rotate(-90 420.878 98.8477)" fill="#F98272"/>
</g>
</g>
</g>
</g>
<rect x="0.1" y="0.1" width="520" height="526.63" rx="23.9" stroke="black" stroke-opacity="0.2" stroke-width="0.2"/>
<defs>
<filter id="filter0_f_250_157995" x="-317.8" y="62.3477" width="758" height="768" filterUnits="userSpaceOnUse" color-interpolation-filters="sRGB">
<feFlood flood-opacity="0" result="BackgroundImageFix"/>
<feBlend mode="normal" in="SourceGraphic" in2="BackgroundImageFix" result="shape"/>
<feGaussianBlur stdDeviation="120" result="effect1_foregroundBlur_250_157995"/>
</filter>
<filter id="filter1_f_250_157995" x="-166.503" y="-519.355" width="1174.76" height="1236.41" filterUnits="userSpaceOnUse" color-interpolation-filters="sRGB">
<feFlood flood-opacity="0" result="BackgroundImageFix"/>
<feBlend mode="normal" in="SourceGraphic" in2="BackgroundImageFix" result="shape"/>
<feGaussianBlur stdDeviation="211.351" result="effect1_foregroundBlur_250_157995"/>
</filter>
<linearGradient id="paint0_linear_250_157995" x1="752.966" y1="1038.54" x2="752.966" y2="1582.01" gradientUnits="userSpaceOnUse">
<stop stop-color="#F7F7F7" stop-opacity="0"/>
<stop offset="1" stop-color="#FBFBFB"/>
</linearGradient>
<clipPath id="clip0_250_157995">
<rect width="520.2" height="526.83" rx="24" fill="white"/>
</clipPath>
<clipPath id="clip1_250_157995">
<rect width="1546" height="569" fill="white" transform="matrix(0 -1 1 0 -27.8 1035.35)"/>
</clipPath>
</defs>
</svg>
